<svg xmlns="http://www.w3.org/2000/svg" viewBox="0 0 512 512" width="512" height="512">
  <defs>
    <linearGradient id="bg" x1="0%" y1="0%" x2="100%" y2="100%">
      <stop offset="0%" style="stop-color:#FED10A"/>
      <stop offset="100%" style="stop-color:#D4A800"/>
    </linearGradient>
    <filter id="s">
      <feGaussianBlur in="SourceGraphic" stdDeviation="30"/>
    </filter>
  </defs>

  <!-- Background -->
  <rect width="512" height="512" rx="80" fill="url(#bg)"/>

  <!-- Subtle light patches -->
  <ellipse cx="160" cy="200" rx="180" ry="160" fill="#fff176" opacity="0.15" filter="url(#s)"/>
  <ellipse cx="380" cy="350" rx="150" ry="130" fill="#a68600" opacity="0.15" filter="url(#s)"/>

  <!-- Elasticsearch logo centered -->
  <g transform="translate(64, 64) scale(16)" fill="#ffffff">
    <path d="M13.394 0C8.683 0 4.609 2.716 2.644 6.667h15.641a4.77 4.77 0 0 0 3.073-1.11c.446-.375.864-.785 1.247-1.243l.001-.002A11.974 11.974 0 0 0 13.394 0zM1.804 8.889a12.009 12.009 0 0 0 0 6.222h14.7a3.111 3.111 0 1 0 0-6.222zm.84 8.444C4.61 21.283 8.684 24 13.395 24c3.701 0 7.011-1.677 9.212-4.312l-.001-.002a9.958 9.958 0 0 0-1.247-1.243 4.77 4.77 0 0 0-3.073-1.11z"/>
  </g>
</svg>
